<svg width="24" height="24" viewBox="0 0 24 24" fill="none" xmlns="http://www.w3.org/2000/svg">
<path d="M6.22566 4.81145C5.83514 4.42092 5.20197 4.42092 4.81145 4.81145C4.42092 5.20197 4.42092 5.83514 4.81145 6.22566L10.5862 12.0004L4.81151 17.7751C4.42098 18.1656 4.42098 18.7988 4.81151 19.1893C5.20203 19.5798 5.8352 19.5798 6.22572 19.1893L12.0004 13.4146L17.7751 19.1893C18.1656 19.5798 18.7988 19.5798 19.1893 19.1893C19.5798 18.7988 19.5798 18.1656 19.1893 17.7751L13.4146 12.0004L19.1893 6.22566C19.5799 5.83514 19.5799 5.20197 19.1893 4.81145C18.7988 4.42092 18.1657 4.42092 17.7751 4.81145L12.0004 10.5862L6.22566 4.81145Z" fill="#525252"/>
</svg>
